<mxfile host="app.diagrams.net" agent="Mozilla/5.0 (Windows NT 10.0; Win64; x64) AppleWebKit/537.36 (KHTML, like Gecko) Chrome/135.0.0.0 Safari/537.36 Edg/135.0.0.0" version="26.2.13">
  <diagram name="Page-1" id="PY9rWITnnQt0CTfy31vw">
    <mxGraphModel dx="1418" dy="755" grid="1" gridSize="10" guides="1" tooltips="1" connect="1" arrows="1" fold="1" page="1" pageScale="1" pageWidth="850" pageHeight="1100" math="0" shadow="0">
      <root>
        <mxCell id="0" />
        <mxCell id="1" parent="0" />
        <mxCell id="I1dKK3iE2u9QphAeNOep-3" value="" style="rounded=0;whiteSpace=wrap;html=1;" parent="1" vertex="1">
          <mxGeometry x="190" y="210" width="440" height="180" as="geometry" />
        </mxCell>
        <mxCell id="I1dKK3iE2u9QphAeNOep-4" value="" style="endArrow=none;html=1;rounded=0;entryX=1;entryY=0.147;entryDx=0;entryDy=0;entryPerimeter=0;exitX=-0.001;exitY=0.148;exitDx=0;exitDy=0;exitPerimeter=0;" parent="1" source="I1dKK3iE2u9QphAeNOep-3" target="I1dKK3iE2u9QphAeNOep-3" edge="1">
          <mxGeometry width="50" height="50" relative="1" as="geometry">
            <mxPoint x="240" y="242" as="sourcePoint" />
            <mxPoint x="270" y="270" as="targetPoint" />
          </mxGeometry>
        </mxCell>
        <mxCell id="I1dKK3iE2u9QphAeNOep-7" value="" style="endArrow=none;html=1;rounded=0;exitX=0.204;exitY=0.993;exitDx=0;exitDy=0;exitPerimeter=0;entryX=0.205;entryY=0.01;entryDx=0;entryDy=0;entryPerimeter=0;" parent="1" source="I1dKK3iE2u9QphAeNOep-3" target="I1dKK3iE2u9QphAeNOep-3" edge="1">
          <mxGeometry width="50" height="50" relative="1" as="geometry">
            <mxPoint x="249.99999999999997" y="428.35" as="sourcePoint" />
            <mxPoint x="280" y="212" as="targetPoint" />
            <Array as="points">
              <mxPoint x="280" y="320" />
            </Array>
          </mxGeometry>
        </mxCell>
        <mxCell id="I1dKK3iE2u9QphAeNOep-9" value="" style="endArrow=none;html=1;rounded=0;entryX=1;entryY=0.147;entryDx=0;entryDy=0;entryPerimeter=0;exitX=-0.001;exitY=0.148;exitDx=0;exitDy=0;exitPerimeter=0;" parent="1" edge="1">
          <mxGeometry width="50" height="50" relative="1" as="geometry">
            <mxPoint x="190" y="271" as="sourcePoint" />
            <mxPoint x="630" y="270" as="targetPoint" />
          </mxGeometry>
        </mxCell>
        <mxCell id="I1dKK3iE2u9QphAeNOep-10" value="" style="endArrow=none;html=1;rounded=0;entryX=1;entryY=0.147;entryDx=0;entryDy=0;entryPerimeter=0;exitX=-0.001;exitY=0.148;exitDx=0;exitDy=0;exitPerimeter=0;" parent="1" edge="1">
          <mxGeometry width="50" height="50" relative="1" as="geometry">
            <mxPoint x="190" y="301" as="sourcePoint" />
            <mxPoint x="630" y="300" as="targetPoint" />
          </mxGeometry>
        </mxCell>
        <mxCell id="I1dKK3iE2u9QphAeNOep-11" value="" style="endArrow=none;html=1;rounded=0;entryX=1;entryY=0.147;entryDx=0;entryDy=0;entryPerimeter=0;exitX=-0.001;exitY=0.148;exitDx=0;exitDy=0;exitPerimeter=0;" parent="1" edge="1">
          <mxGeometry width="50" height="50" relative="1" as="geometry">
            <mxPoint x="190" y="331" as="sourcePoint" />
            <mxPoint x="630" y="330" as="targetPoint" />
          </mxGeometry>
        </mxCell>
        <mxCell id="I1dKK3iE2u9QphAeNOep-12" value="" style="endArrow=none;html=1;rounded=0;entryX=1;entryY=0.147;entryDx=0;entryDy=0;entryPerimeter=0;exitX=-0.001;exitY=0.148;exitDx=0;exitDy=0;exitPerimeter=0;" parent="1" edge="1">
          <mxGeometry width="50" height="50" relative="1" as="geometry">
            <mxPoint x="190" y="361" as="sourcePoint" />
            <mxPoint x="630" y="360" as="targetPoint" />
          </mxGeometry>
        </mxCell>
        <mxCell id="I1dKK3iE2u9QphAeNOep-13" value="" style="endArrow=none;html=1;rounded=0;entryX=1;entryY=0.147;entryDx=0;entryDy=0;entryPerimeter=0;exitX=-0.001;exitY=0.148;exitDx=0;exitDy=0;exitPerimeter=0;" parent="1" edge="1">
          <mxGeometry width="50" height="50" relative="1" as="geometry">
            <mxPoint x="190" y="391" as="sourcePoint" />
            <mxPoint x="630" y="390" as="targetPoint" />
          </mxGeometry>
        </mxCell>
        <mxCell id="I1dKK3iE2u9QphAeNOep-29" value="Nr. date" style="text;html=1;align=center;verticalAlign=middle;whiteSpace=wrap;rounded=0;" parent="1" vertex="1">
          <mxGeometry x="190" y="210" width="60" height="30" as="geometry" />
        </mxCell>
        <mxCell id="I1dKK3iE2u9QphAeNOep-30" value="" style="rounded=0;whiteSpace=wrap;html=1;" parent="1" vertex="1">
          <mxGeometry x="140" y="210" width="50" height="180" as="geometry" />
        </mxCell>
        <mxCell id="I1dKK3iE2u9QphAeNOep-31" value="Date antrenare - Date testare" style="text;html=1;align=center;verticalAlign=middle;whiteSpace=wrap;rounded=0;rotation=-90;" parent="1" vertex="1">
          <mxGeometry x="97.5" y="292.5" width="135" height="30" as="geometry" />
        </mxCell>
        <mxCell id="I1dKK3iE2u9QphAeNOep-32" value="7999-2000" style="text;html=1;align=center;verticalAlign=middle;whiteSpace=wrap;rounded=0;" parent="1" vertex="1">
          <mxGeometry x="210" y="240" width="60" height="30" as="geometry" />
        </mxCell>
        <mxCell id="I1dKK3iE2u9QphAeNOep-33" value="" style="rounded=0;whiteSpace=wrap;html=1;" parent="1" vertex="1">
          <mxGeometry x="140" y="170" width="490" height="40" as="geometry" />
        </mxCell>
        <mxCell id="I1dKK3iE2u9QphAeNOep-5" value="Rețeaua neuronală LSTM - Testare model" style="text;html=1;align=center;verticalAlign=middle;whiteSpace=wrap;rounded=0;" parent="1" vertex="1">
          <mxGeometry x="275" y="175" width="300" height="30" as="geometry" />
        </mxCell>
        <mxCell id="I1dKK3iE2u9QphAeNOep-35" value="Acuratete&amp;nbsp;" style="text;html=1;align=center;verticalAlign=middle;whiteSpace=wrap;rounded=0;" parent="1" vertex="1">
          <mxGeometry x="275" y="210" width="150" height="30" as="geometry" />
        </mxCell>
        <mxCell id="I1dKK3iE2u9QphAeNOep-36" value="Pierdere" style="text;html=1;align=center;verticalAlign=middle;whiteSpace=wrap;rounded=0;" parent="1" vertex="1">
          <mxGeometry x="470" y="210" width="150" height="30" as="geometry" />
        </mxCell>
        <mxCell id="I1dKK3iE2u9QphAeNOep-37" value="" style="endArrow=none;html=1;rounded=0;entryX=0.588;entryY=0.012;entryDx=0;entryDy=0;entryPerimeter=0;exitX=0.591;exitY=0.997;exitDx=0;exitDy=0;exitPerimeter=0;" parent="1" source="I1dKK3iE2u9QphAeNOep-3" target="I1dKK3iE2u9QphAeNOep-3" edge="1">
          <mxGeometry width="50" height="50" relative="1" as="geometry">
            <mxPoint x="430" y="350" as="sourcePoint" />
            <mxPoint x="480" y="300" as="targetPoint" />
          </mxGeometry>
        </mxCell>
        <mxCell id="I1dKK3iE2u9QphAeNOep-40" value="&amp;nbsp;4.6959426981629804e-05" style="text;html=1;align=center;verticalAlign=middle;whiteSpace=wrap;rounded=0;" parent="1" vertex="1">
          <mxGeometry x="445" y="240" width="185" height="30" as="geometry" />
        </mxCell>
        <mxCell id="I1dKK3iE2u9QphAeNOep-41" value="&amp;nbsp;1.0" style="text;html=1;align=center;verticalAlign=middle;whiteSpace=wrap;rounded=0;" parent="1" vertex="1">
          <mxGeometry x="320" y="240" width="60" height="30" as="geometry" />
        </mxCell>
        <mxCell id="I1dKK3iE2u9QphAeNOep-42" value="7920-1981" style="text;html=1;align=center;verticalAlign=middle;whiteSpace=wrap;rounded=0;" parent="1" vertex="1">
          <mxGeometry x="210" y="273" width="60" height="30" as="geometry" />
        </mxCell>
        <mxCell id="I1dKK3iE2u9QphAeNOep-43" value="&amp;nbsp;0.995961606502533" style="text;html=1;align=center;verticalAlign=middle;whiteSpace=wrap;rounded=0;" parent="1" vertex="1">
          <mxGeometry x="250" y="273" width="210" height="30" as="geometry" />
        </mxCell>
        <mxCell id="I1dKK3iE2u9QphAeNOep-44" value="0.023758934810757637" style="text;html=1;align=center;verticalAlign=middle;whiteSpace=wrap;rounded=0;" parent="1" vertex="1">
          <mxGeometry x="507.5" y="273" width="60" height="30" as="geometry" />
        </mxCell>
        <mxCell id="I1dKK3iE2u9QphAeNOep-47" value="6400-1601" style="text;html=1;align=center;verticalAlign=middle;whiteSpace=wrap;rounded=0;" parent="1" vertex="1">
          <mxGeometry x="210" y="305" width="60" height="30" as="geometry" />
        </mxCell>
        <mxCell id="I1dKK3iE2u9QphAeNOep-49" value="&lt;span style=&quot;color: rgb(0, 0, 0); font-family: Helvetica; font-size: 12px; font-style: normal; font-variant-ligatures: normal; font-variant-caps: normal; font-weight: 400; letter-spacing: normal; orphans: 2; text-align: center; text-indent: 0px; text-transform: none; widows: 2; word-spacing: 0px; -webkit-text-stroke-width: 0px; white-space: normal; background-color: rgb(251, 251, 251); text-decoration-thickness: initial; text-decoration-style: initial; text-decoration-color: initial; display: inline !important; float: none;&quot;&gt;0.27180206775665283&lt;/span&gt;" style="text;whiteSpace=wrap;html=1;" parent="1" vertex="1">
          <mxGeometry x="470" y="303" width="160" height="40" as="geometry" />
        </mxCell>
        <mxCell id="I1dKK3iE2u9QphAeNOep-50" value="&lt;span style=&quot;color: rgb(0, 0, 0); font-family: Helvetica; font-size: 12px; font-style: normal; font-variant-ligatures: normal; font-variant-caps: normal; font-weight: 400; letter-spacing: normal; orphans: 2; text-align: center; text-indent: 0px; text-transform: none; widows: 2; word-spacing: 0px; -webkit-text-stroke-width: 0px; white-space: normal; background-color: rgb(251, 251, 251); text-decoration-thickness: initial; text-decoration-style: initial; text-decoration-color: initial; display: inline !important; float: none;&quot;&gt;0.8838226199150085&lt;/span&gt;" style="text;whiteSpace=wrap;html=1;" parent="1" vertex="1">
          <mxGeometry x="295" y="305" width="150" height="40" as="geometry" />
        </mxCell>
        <mxCell id="I1dKK3iE2u9QphAeNOep-51" value="  4800-1201" style="text;whiteSpace=wrap;" parent="1" vertex="1">
          <mxGeometry x="200" y="335" width="90" height="40" as="geometry" />
        </mxCell>
        <mxCell id="I1dKK3iE2u9QphAeNOep-52" value="1-50-1000-2000-2500" style="text;html=1;align=center;verticalAlign=middle;resizable=0;points=[];autosize=1;strokeColor=none;fillColor=none;" parent="1" vertex="1">
          <mxGeometry x="135" y="120" width="140" height="30" as="geometry" />
        </mxCell>
        <mxCell id="I1dKK3iE2u9QphAeNOep-53" value="0.4787624180316925" style="text;whiteSpace=wrap;" parent="1" vertex="1">
          <mxGeometry x="470" y="335" width="150" height="40" as="geometry" />
        </mxCell>
        <mxCell id="I1dKK3iE2u9QphAeNOep-54" value="0.8234804272651672" style="text;whiteSpace=wrap;" parent="1" vertex="1">
          <mxGeometry x="295" y="335" width="150" height="40" as="geometry" />
        </mxCell>
        <mxCell id="I1dKK3iE2u9QphAeNOep-55" value="4001 1001" style="text;whiteSpace=wrap;" parent="1" vertex="1">
          <mxGeometry x="205" y="360" width="90" height="40" as="geometry" />
        </mxCell>
        <mxCell id="I1dKK3iE2u9QphAeNOep-56" value="6.574970757355914e-05" style="text;whiteSpace=wrap;" parent="1" vertex="1">
          <mxGeometry x="465" y="360" width="170" height="40" as="geometry" />
        </mxCell>
        <mxCell id="I1dKK3iE2u9QphAeNOep-57" value="&amp;nbsp;1.0" style="text;html=1;align=center;verticalAlign=middle;resizable=0;points=[];autosize=1;strokeColor=none;fillColor=none;" parent="1" vertex="1">
          <mxGeometry x="335" y="360" width="40" height="30" as="geometry" />
        </mxCell>
        <mxCell id="I1dKK3iE2u9QphAeNOep-130" value="Testare " style="shape=table;childLayout=tableLayout;startSize=40;collapsible=0;recursiveResize=0;expand=0;fontSize=16;" parent="1" vertex="1">
          <mxGeometry x="1110" y="810" width="400" height="400" as="geometry" />
        </mxCell>
        <mxCell id="I1dKK3iE2u9QphAeNOep-131" value="LSTM" style="shape=tableRow;horizontal=0;swimlaneHead=0;swimlaneBody=0;top=0;left=0;strokeColor=inherit;bottom=0;right=0;dropTarget=0;fontStyle=0;fillColor=none;points=[[0,0.5],[1,0.5]];portConstraint=eastwest;startSize=40;collapsible=0;recursiveResize=0;expand=0;fontSize=16;" parent="I1dKK3iE2u9QphAeNOep-130" vertex="1">
          <mxGeometry y="40" width="400" height="120" as="geometry" />
        </mxCell>
        <mxCell id="I1dKK3iE2u9QphAeNOep-132" value="Accuracy" style="swimlane;swimlaneHead=0;swimlaneBody=0;fontStyle=0;strokeColor=inherit;connectable=0;fillColor=none;startSize=40;collapsible=0;recursiveResize=0;expand=0;fontSize=16;" parent="I1dKK3iE2u9QphAeNOep-131" vertex="1">
          <mxGeometry x="40" width="120" height="120" as="geometry">
            <mxRectangle width="120" height="120" as="alternateBounds" />
          </mxGeometry>
        </mxCell>
        <mxCell id="OG5c_tO3-TUJXD1SEKAm-31" value="1.0" style="text;html=1;align=center;verticalAlign=middle;resizable=0;points=[];autosize=1;strokeColor=none;fillColor=none;" parent="I1dKK3iE2u9QphAeNOep-132" vertex="1">
          <mxGeometry x="40" y="62.5" width="40" height="30" as="geometry" />
        </mxCell>
        <mxCell id="I1dKK3iE2u9QphAeNOep-133" value="F1-Score" style="swimlane;swimlaneHead=0;swimlaneBody=0;fontStyle=0;strokeColor=inherit;connectable=0;fillColor=none;startSize=40;collapsible=0;recursiveResize=0;expand=0;fontSize=16;" parent="I1dKK3iE2u9QphAeNOep-131" vertex="1">
          <mxGeometry x="160" width="120" height="120" as="geometry">
            <mxRectangle width="120" height="120" as="alternateBounds" />
          </mxGeometry>
        </mxCell>
        <mxCell id="OG5c_tO3-TUJXD1SEKAm-33" value="1.0" style="text;html=1;align=center;verticalAlign=middle;resizable=0;points=[];autosize=1;strokeColor=none;fillColor=none;" parent="I1dKK3iE2u9QphAeNOep-133" vertex="1">
          <mxGeometry x="40" y="65.5" width="40" height="30" as="geometry" />
        </mxCell>
        <mxCell id="I1dKK3iE2u9QphAeNOep-134" value="Recall" style="swimlane;swimlaneHead=0;swimlaneBody=0;fontStyle=0;strokeColor=inherit;connectable=0;fillColor=none;startSize=40;collapsible=0;recursiveResize=0;expand=0;fontSize=16;" parent="I1dKK3iE2u9QphAeNOep-131" vertex="1">
          <mxGeometry x="280" width="120" height="120" as="geometry">
            <mxRectangle width="120" height="120" as="alternateBounds" />
          </mxGeometry>
        </mxCell>
        <mxCell id="OG5c_tO3-TUJXD1SEKAm-32" value="1.0" style="text;html=1;align=center;verticalAlign=middle;resizable=0;points=[];autosize=1;strokeColor=none;fillColor=none;" parent="I1dKK3iE2u9QphAeNOep-134" vertex="1">
          <mxGeometry x="40" y="62.5" width="40" height="30" as="geometry" />
        </mxCell>
        <mxCell id="I1dKK3iE2u9QphAeNOep-135" value="Random-Forest" style="shape=tableRow;horizontal=0;swimlaneHead=0;swimlaneBody=0;top=0;left=0;strokeColor=inherit;bottom=0;right=0;dropTarget=0;fontStyle=0;fillColor=none;points=[[0,0.5],[1,0.5]];portConstraint=eastwest;startSize=40;collapsible=0;recursiveResize=0;expand=0;fontSize=16;" parent="I1dKK3iE2u9QphAeNOep-130" vertex="1">
          <mxGeometry y="160" width="400" height="120" as="geometry" />
        </mxCell>
        <mxCell id="I1dKK3iE2u9QphAeNOep-136" value="" style="swimlane;swimlaneHead=0;swimlaneBody=0;fontStyle=0;connectable=0;strokeColor=inherit;fillColor=none;startSize=0;collapsible=0;recursiveResize=0;expand=0;fontSize=16;" parent="I1dKK3iE2u9QphAeNOep-135" vertex="1">
          <mxGeometry x="40" width="120" height="120" as="geometry">
            <mxRectangle width="120" height="120" as="alternateBounds" />
          </mxGeometry>
        </mxCell>
        <mxCell id="OG5c_tO3-TUJXD1SEKAm-29" value="1.0" style="text;html=1;align=center;verticalAlign=middle;resizable=0;points=[];autosize=1;strokeColor=none;fillColor=none;" parent="I1dKK3iE2u9QphAeNOep-136" vertex="1">
          <mxGeometry x="40" y="45" width="40" height="30" as="geometry" />
        </mxCell>
        <mxCell id="I1dKK3iE2u9QphAeNOep-137" value="" style="swimlane;swimlaneHead=0;swimlaneBody=0;fontStyle=0;connectable=0;strokeColor=inherit;fillColor=none;startSize=0;collapsible=0;recursiveResize=0;expand=0;fontSize=16;" parent="I1dKK3iE2u9QphAeNOep-135" vertex="1">
          <mxGeometry x="160" width="120" height="120" as="geometry">
            <mxRectangle width="120" height="120" as="alternateBounds" />
          </mxGeometry>
        </mxCell>
        <mxCell id="OG5c_tO3-TUJXD1SEKAm-28" value="1.0" style="text;html=1;align=center;verticalAlign=middle;resizable=0;points=[];autosize=1;strokeColor=none;fillColor=none;" parent="I1dKK3iE2u9QphAeNOep-137" vertex="1">
          <mxGeometry x="35" y="45" width="40" height="30" as="geometry" />
        </mxCell>
        <mxCell id="I1dKK3iE2u9QphAeNOep-138" value="" style="swimlane;swimlaneHead=0;swimlaneBody=0;fontStyle=0;connectable=0;strokeColor=inherit;fillColor=none;startSize=0;collapsible=0;recursiveResize=0;expand=0;fontSize=16;" parent="I1dKK3iE2u9QphAeNOep-135" vertex="1">
          <mxGeometry x="280" width="120" height="120" as="geometry">
            <mxRectangle width="120" height="120" as="alternateBounds" />
          </mxGeometry>
        </mxCell>
        <mxCell id="OG5c_tO3-TUJXD1SEKAm-30" value="1.0" style="text;html=1;align=center;verticalAlign=middle;resizable=0;points=[];autosize=1;strokeColor=none;fillColor=none;" parent="I1dKK3iE2u9QphAeNOep-138" vertex="1">
          <mxGeometry x="40" y="45" width="40" height="30" as="geometry" />
        </mxCell>
        <mxCell id="I1dKK3iE2u9QphAeNOep-139" value="K-NN" style="shape=tableRow;horizontal=0;swimlaneHead=0;swimlaneBody=0;top=0;left=0;strokeColor=inherit;bottom=0;right=0;dropTarget=0;fontStyle=0;fillColor=none;points=[[0,0.5],[1,0.5]];portConstraint=eastwest;startSize=40;collapsible=0;recursiveResize=0;expand=0;fontSize=16;" parent="I1dKK3iE2u9QphAeNOep-130" vertex="1">
          <mxGeometry y="280" width="400" height="120" as="geometry" />
        </mxCell>
        <mxCell id="I1dKK3iE2u9QphAeNOep-140" value="" style="swimlane;swimlaneHead=0;swimlaneBody=0;fontStyle=0;connectable=0;strokeColor=inherit;fillColor=none;startSize=0;collapsible=0;recursiveResize=0;expand=0;fontSize=16;" parent="I1dKK3iE2u9QphAeNOep-139" vertex="1">
          <mxGeometry x="40" width="120" height="120" as="geometry">
            <mxRectangle width="120" height="120" as="alternateBounds" />
          </mxGeometry>
        </mxCell>
        <mxCell id="OG5c_tO3-TUJXD1SEKAm-34" value="1.0" style="text;html=1;align=center;verticalAlign=middle;resizable=0;points=[];autosize=1;strokeColor=none;fillColor=none;" parent="I1dKK3iE2u9QphAeNOep-140" vertex="1">
          <mxGeometry x="40" y="38" width="40" height="30" as="geometry" />
        </mxCell>
        <mxCell id="I1dKK3iE2u9QphAeNOep-141" value="" style="swimlane;swimlaneHead=0;swimlaneBody=0;fontStyle=0;connectable=0;strokeColor=inherit;fillColor=none;startSize=0;collapsible=0;recursiveResize=0;expand=0;fontSize=16;" parent="I1dKK3iE2u9QphAeNOep-139" vertex="1">
          <mxGeometry x="160" width="120" height="120" as="geometry">
            <mxRectangle width="120" height="120" as="alternateBounds" />
          </mxGeometry>
        </mxCell>
        <mxCell id="OG5c_tO3-TUJXD1SEKAm-35" value="1.0" style="text;html=1;align=center;verticalAlign=middle;resizable=0;points=[];autosize=1;strokeColor=none;fillColor=none;" parent="I1dKK3iE2u9QphAeNOep-141" vertex="1">
          <mxGeometry x="40" y="38" width="40" height="30" as="geometry" />
        </mxCell>
        <mxCell id="I1dKK3iE2u9QphAeNOep-142" value="" style="swimlane;swimlaneHead=0;swimlaneBody=0;fontStyle=0;connectable=0;strokeColor=inherit;fillColor=none;startSize=0;collapsible=0;recursiveResize=0;expand=0;fontSize=16;" parent="I1dKK3iE2u9QphAeNOep-139" vertex="1">
          <mxGeometry x="280" width="120" height="120" as="geometry">
            <mxRectangle width="120" height="120" as="alternateBounds" />
          </mxGeometry>
        </mxCell>
        <mxCell id="OG5c_tO3-TUJXD1SEKAm-36" value="1.0" style="text;html=1;align=center;verticalAlign=middle;resizable=0;points=[];autosize=1;strokeColor=none;fillColor=none;" parent="I1dKK3iE2u9QphAeNOep-142" vertex="1">
          <mxGeometry x="40" y="45" width="40" height="30" as="geometry" />
        </mxCell>
        <mxCell id="I1dKK3iE2u9QphAeNOep-144" value="" style="swimlane;swimlaneHead=0;swimlaneBody=0;fontStyle=0;connectable=0;strokeColor=inherit;fillColor=none;startSize=0;collapsible=0;recursiveResize=0;expand=0;fontSize=16;" parent="1" vertex="1">
          <mxGeometry x="970" y="560" width="120" height="120" as="geometry">
            <mxRectangle width="120" height="120" as="alternateBounds" />
          </mxGeometry>
        </mxCell>
        <mxCell id="I1dKK3iE2u9QphAeNOep-145" value="" style="swimlane;swimlaneHead=0;swimlaneBody=0;fontStyle=0;connectable=0;strokeColor=inherit;fillColor=none;startSize=0;collapsible=0;recursiveResize=0;expand=0;fontSize=16;" parent="1" vertex="1">
          <mxGeometry x="970" y="680" width="120" height="120" as="geometry">
            <mxRectangle width="120" height="120" as="alternateBounds" />
          </mxGeometry>
        </mxCell>
        <mxCell id="K1rj8jE5_-2xYqu6Y4NA-1" value="" style="rounded=0;whiteSpace=wrap;html=1;" parent="1" vertex="1">
          <mxGeometry x="762.5" y="130" width="440" height="150" as="geometry" />
        </mxCell>
        <mxCell id="K1rj8jE5_-2xYqu6Y4NA-2" value="" style="endArrow=none;html=1;rounded=0;entryX=1;entryY=0.147;entryDx=0;entryDy=0;entryPerimeter=0;exitX=-0.001;exitY=0.148;exitDx=0;exitDy=0;exitPerimeter=0;" parent="1" source="K1rj8jE5_-2xYqu6Y4NA-1" target="K1rj8jE5_-2xYqu6Y4NA-1" edge="1">
          <mxGeometry width="50" height="50" relative="1" as="geometry">
            <mxPoint x="812.5" y="162" as="sourcePoint" />
            <mxPoint x="842.5" y="190" as="targetPoint" />
          </mxGeometry>
        </mxCell>
        <mxCell id="K1rj8jE5_-2xYqu6Y4NA-3" value="" style="endArrow=none;html=1;rounded=0;exitX=0.204;exitY=0.993;exitDx=0;exitDy=0;exitPerimeter=0;entryX=0.205;entryY=0.01;entryDx=0;entryDy=0;entryPerimeter=0;" parent="1" source="K1rj8jE5_-2xYqu6Y4NA-1" target="K1rj8jE5_-2xYqu6Y4NA-1" edge="1">
          <mxGeometry width="50" height="50" relative="1" as="geometry">
            <mxPoint x="822.5" y="348.35" as="sourcePoint" />
            <mxPoint x="852.5" y="132" as="targetPoint" />
            <Array as="points">
              <mxPoint x="852.5" y="240" />
            </Array>
          </mxGeometry>
        </mxCell>
        <mxCell id="K1rj8jE5_-2xYqu6Y4NA-4" value="" style="endArrow=none;html=1;rounded=0;entryX=1;entryY=0.147;entryDx=0;entryDy=0;entryPerimeter=0;exitX=-0.001;exitY=0.148;exitDx=0;exitDy=0;exitPerimeter=0;" parent="1" edge="1">
          <mxGeometry width="50" height="50" relative="1" as="geometry">
            <mxPoint x="762.5" y="191" as="sourcePoint" />
            <mxPoint x="1202.5" y="190" as="targetPoint" />
          </mxGeometry>
        </mxCell>
        <mxCell id="K1rj8jE5_-2xYqu6Y4NA-5" value="" style="endArrow=none;html=1;rounded=0;entryX=1;entryY=0.147;entryDx=0;entryDy=0;entryPerimeter=0;exitX=-0.001;exitY=0.148;exitDx=0;exitDy=0;exitPerimeter=0;" parent="1" edge="1">
          <mxGeometry width="50" height="50" relative="1" as="geometry">
            <mxPoint x="762.5" y="221" as="sourcePoint" />
            <mxPoint x="1202.5" y="220" as="targetPoint" />
          </mxGeometry>
        </mxCell>
        <mxCell id="K1rj8jE5_-2xYqu6Y4NA-6" value="" style="endArrow=none;html=1;rounded=0;entryX=1;entryY=0.147;entryDx=0;entryDy=0;entryPerimeter=0;exitX=-0.001;exitY=0.148;exitDx=0;exitDy=0;exitPerimeter=0;" parent="1" edge="1">
          <mxGeometry width="50" height="50" relative="1" as="geometry">
            <mxPoint x="762.5" y="251" as="sourcePoint" />
            <mxPoint x="1202.5" y="250" as="targetPoint" />
          </mxGeometry>
        </mxCell>
        <mxCell id="K1rj8jE5_-2xYqu6Y4NA-7" value="" style="endArrow=none;html=1;rounded=0;entryX=1;entryY=0.147;entryDx=0;entryDy=0;entryPerimeter=0;exitX=-0.001;exitY=0.148;exitDx=0;exitDy=0;exitPerimeter=0;" parent="1" edge="1">
          <mxGeometry width="50" height="50" relative="1" as="geometry">
            <mxPoint x="762.5" y="281" as="sourcePoint" />
            <mxPoint x="1202.5" y="280" as="targetPoint" />
          </mxGeometry>
        </mxCell>
        <mxCell id="K1rj8jE5_-2xYqu6Y4NA-9" value="Procent date" style="text;html=1;align=center;verticalAlign=middle;whiteSpace=wrap;rounded=0;" parent="1" vertex="1">
          <mxGeometry x="755" y="130" width="107.5" height="30" as="geometry" />
        </mxCell>
        <mxCell id="K1rj8jE5_-2xYqu6Y4NA-10" value="" style="rounded=0;whiteSpace=wrap;html=1;" parent="1" vertex="1">
          <mxGeometry x="712.5" y="130" width="50" height="150" as="geometry" />
        </mxCell>
        <mxCell id="K1rj8jE5_-2xYqu6Y4NA-11" value="Date antrenare - Date testare" style="text;html=1;align=center;verticalAlign=middle;whiteSpace=wrap;rounded=0;rotation=-90;" parent="1" vertex="1">
          <mxGeometry x="670" y="190" width="135" height="30" as="geometry" />
        </mxCell>
        <mxCell id="K1rj8jE5_-2xYqu6Y4NA-12" value="80-20" style="text;html=1;align=center;verticalAlign=middle;whiteSpace=wrap;rounded=0;" parent="1" vertex="1">
          <mxGeometry x="778.75" y="160" width="60" height="30" as="geometry" />
        </mxCell>
        <mxCell id="K1rj8jE5_-2xYqu6Y4NA-13" value="" style="rounded=0;whiteSpace=wrap;html=1;" parent="1" vertex="1">
          <mxGeometry x="712.5" y="90" width="490" height="40" as="geometry" />
        </mxCell>
        <mxCell id="K1rj8jE5_-2xYqu6Y4NA-14" value="Rețeaua neuronală LSTM - Testare model" style="text;html=1;align=center;verticalAlign=middle;whiteSpace=wrap;rounded=0;" parent="1" vertex="1">
          <mxGeometry x="847.5" y="95" width="300" height="30" as="geometry" />
        </mxCell>
        <mxCell id="K1rj8jE5_-2xYqu6Y4NA-15" value="Acuratete&amp;nbsp;" style="text;html=1;align=center;verticalAlign=middle;whiteSpace=wrap;rounded=0;" parent="1" vertex="1">
          <mxGeometry x="847.5" y="130" width="150" height="30" as="geometry" />
        </mxCell>
        <mxCell id="K1rj8jE5_-2xYqu6Y4NA-16" value="Pierdere" style="text;html=1;align=center;verticalAlign=middle;whiteSpace=wrap;rounded=0;" parent="1" vertex="1">
          <mxGeometry x="1042.5" y="130" width="150" height="30" as="geometry" />
        </mxCell>
        <mxCell id="K1rj8jE5_-2xYqu6Y4NA-17" value="" style="endArrow=none;html=1;rounded=0;entryX=0.588;entryY=0.012;entryDx=0;entryDy=0;entryPerimeter=0;exitX=0.591;exitY=0.997;exitDx=0;exitDy=0;exitPerimeter=0;" parent="1" source="K1rj8jE5_-2xYqu6Y4NA-1" target="K1rj8jE5_-2xYqu6Y4NA-1" edge="1">
          <mxGeometry width="50" height="50" relative="1" as="geometry">
            <mxPoint x="1002.5" y="270" as="sourcePoint" />
            <mxPoint x="1052.5" y="220" as="targetPoint" />
          </mxGeometry>
        </mxCell>
        <mxCell id="K1rj8jE5_-2xYqu6Y4NA-18" value="&amp;nbsp;4.6959426981629804e-05" style="text;html=1;align=center;verticalAlign=middle;whiteSpace=wrap;rounded=0;" parent="1" vertex="1">
          <mxGeometry x="1017.5" y="160" width="185" height="30" as="geometry" />
        </mxCell>
        <mxCell id="K1rj8jE5_-2xYqu6Y4NA-19" value="&amp;nbsp;1.0" style="text;html=1;align=center;verticalAlign=middle;whiteSpace=wrap;rounded=0;" parent="1" vertex="1">
          <mxGeometry x="892.5" y="160" width="60" height="30" as="geometry" />
        </mxCell>
        <mxCell id="K1rj8jE5_-2xYqu6Y4NA-20" value="70-30" style="text;html=1;align=center;verticalAlign=middle;whiteSpace=wrap;rounded=0;" parent="1" vertex="1">
          <mxGeometry x="778.75" y="193" width="60" height="30" as="geometry" />
        </mxCell>
        <mxCell id="K1rj8jE5_-2xYqu6Y4NA-21" value="1.0" style="text;html=1;align=center;verticalAlign=middle;whiteSpace=wrap;rounded=0;" parent="1" vertex="1">
          <mxGeometry x="822.5" y="193" width="210" height="30" as="geometry" />
        </mxCell>
        <mxCell id="K1rj8jE5_-2xYqu6Y4NA-22" value="3.126253659502254e-06" style="text;html=1;align=center;verticalAlign=middle;whiteSpace=wrap;rounded=0;" parent="1" vertex="1">
          <mxGeometry x="1030" y="190" width="160" height="30" as="geometry" />
        </mxCell>
        <mxCell id="K1rj8jE5_-2xYqu6Y4NA-23" value="60-40" style="text;html=1;align=center;verticalAlign=middle;whiteSpace=wrap;rounded=0;" parent="1" vertex="1">
          <mxGeometry x="778.75" y="225" width="60" height="30" as="geometry" />
        </mxCell>
        <mxCell id="K1rj8jE5_-2xYqu6Y4NA-24" value="&lt;span style=&quot;text-align: center; text-wrap-mode: nowrap;&quot;&gt;5.915760681318716e-08,&lt;/span&gt;" style="text;whiteSpace=wrap;html=1;" parent="1" vertex="1">
          <mxGeometry x="1042.5" y="223" width="160" height="40" as="geometry" />
        </mxCell>
        <mxCell id="K1rj8jE5_-2xYqu6Y4NA-25" value="&lt;div style=&quot;text-align: center;&quot;&gt;&lt;span style=&quot;background-color: transparent; color: light-dark(rgb(0, 0, 0), rgb(255, 255, 255));&quot;&gt;1.0&lt;/span&gt;&lt;/div&gt;" style="text;whiteSpace=wrap;html=1;" parent="1" vertex="1">
          <mxGeometry x="920" y="225" width="150" height="40" as="geometry" />
        </mxCell>
        <mxCell id="K1rj8jE5_-2xYqu6Y4NA-26" value="50-50" style="text;whiteSpace=wrap;" parent="1" vertex="1">
          <mxGeometry x="790" y="255" width="90" height="40" as="geometry" />
        </mxCell>
        <mxCell id="K1rj8jE5_-2xYqu6Y4NA-27" value="1.5587748976031435e-06" style="text;whiteSpace=wrap;" parent="1" vertex="1">
          <mxGeometry x="1042.5" y="255" width="150" height="40" as="geometry" />
        </mxCell>
        <mxCell id="K1rj8jE5_-2xYqu6Y4NA-28" value="1.0&#xa;" style="text;whiteSpace=wrap;" parent="1" vertex="1">
          <mxGeometry x="920" y="255" width="150" height="40" as="geometry" />
        </mxCell>
        <mxCell id="OG5c_tO3-TUJXD1SEKAm-1" value="" style="rounded=0;whiteSpace=wrap;html=1;" parent="1" vertex="1">
          <mxGeometry x="1242.5" y="362.5" width="440" height="150" as="geometry" />
        </mxCell>
        <mxCell id="OG5c_tO3-TUJXD1SEKAm-2" value="" style="endArrow=none;html=1;rounded=0;entryX=1;entryY=0.147;entryDx=0;entryDy=0;entryPerimeter=0;exitX=-0.001;exitY=0.148;exitDx=0;exitDy=0;exitPerimeter=0;" parent="1" source="OG5c_tO3-TUJXD1SEKAm-1" target="OG5c_tO3-TUJXD1SEKAm-1" edge="1">
          <mxGeometry width="50" height="50" relative="1" as="geometry">
            <mxPoint x="1292.5" y="394.5" as="sourcePoint" />
            <mxPoint x="1322.5" y="422.5" as="targetPoint" />
          </mxGeometry>
        </mxCell>
        <mxCell id="OG5c_tO3-TUJXD1SEKAm-3" value="" style="endArrow=none;html=1;rounded=0;exitX=0.204;exitY=0.993;exitDx=0;exitDy=0;exitPerimeter=0;entryX=0.205;entryY=0.01;entryDx=0;entryDy=0;entryPerimeter=0;" parent="1" source="OG5c_tO3-TUJXD1SEKAm-1" target="OG5c_tO3-TUJXD1SEKAm-1" edge="1">
          <mxGeometry width="50" height="50" relative="1" as="geometry">
            <mxPoint x="1302.5" y="580.85" as="sourcePoint" />
            <mxPoint x="1332.5" y="364.5" as="targetPoint" />
            <Array as="points">
              <mxPoint x="1332.5" y="472.5" />
            </Array>
          </mxGeometry>
        </mxCell>
        <mxCell id="OG5c_tO3-TUJXD1SEKAm-4" value="" style="endArrow=none;html=1;rounded=0;entryX=1;entryY=0.147;entryDx=0;entryDy=0;entryPerimeter=0;exitX=-0.001;exitY=0.148;exitDx=0;exitDy=0;exitPerimeter=0;" parent="1" edge="1">
          <mxGeometry width="50" height="50" relative="1" as="geometry">
            <mxPoint x="1242.5" y="423.5" as="sourcePoint" />
            <mxPoint x="1682.5" y="422.5" as="targetPoint" />
          </mxGeometry>
        </mxCell>
        <mxCell id="OG5c_tO3-TUJXD1SEKAm-5" value="" style="endArrow=none;html=1;rounded=0;entryX=1;entryY=0.147;entryDx=0;entryDy=0;entryPerimeter=0;exitX=-0.001;exitY=0.148;exitDx=0;exitDy=0;exitPerimeter=0;" parent="1" edge="1">
          <mxGeometry width="50" height="50" relative="1" as="geometry">
            <mxPoint x="1242.5" y="453.5" as="sourcePoint" />
            <mxPoint x="1682.5" y="452.5" as="targetPoint" />
          </mxGeometry>
        </mxCell>
        <mxCell id="OG5c_tO3-TUJXD1SEKAm-6" value="" style="endArrow=none;html=1;rounded=0;entryX=1;entryY=0.147;entryDx=0;entryDy=0;entryPerimeter=0;exitX=-0.001;exitY=0.148;exitDx=0;exitDy=0;exitPerimeter=0;" parent="1" edge="1">
          <mxGeometry width="50" height="50" relative="1" as="geometry">
            <mxPoint x="1242.5" y="483.5" as="sourcePoint" />
            <mxPoint x="1682.5" y="482.5" as="targetPoint" />
          </mxGeometry>
        </mxCell>
        <mxCell id="OG5c_tO3-TUJXD1SEKAm-8" value="Procent date" style="text;html=1;align=center;verticalAlign=middle;whiteSpace=wrap;rounded=0;" parent="1" vertex="1">
          <mxGeometry x="1235" y="362.5" width="107.5" height="30" as="geometry" />
        </mxCell>
        <mxCell id="OG5c_tO3-TUJXD1SEKAm-9" value="" style="rounded=0;whiteSpace=wrap;html=1;" parent="1" vertex="1">
          <mxGeometry x="1192.5" y="362.5" width="50" height="150" as="geometry" />
        </mxCell>
        <mxCell id="OG5c_tO3-TUJXD1SEKAm-10" value="Date antrenare - Date testare" style="text;html=1;align=center;verticalAlign=middle;whiteSpace=wrap;rounded=0;rotation=-90;" parent="1" vertex="1">
          <mxGeometry x="1150" y="422.5" width="135" height="30" as="geometry" />
        </mxCell>
        <mxCell id="OG5c_tO3-TUJXD1SEKAm-91" value="" style="edgeStyle=orthogonalEdgeStyle;rounded=0;orthogonalLoop=1;jettySize=auto;html=1;" parent="1" source="OG5c_tO3-TUJXD1SEKAm-11" target="OG5c_tO3-TUJXD1SEKAm-10" edge="1">
          <mxGeometry relative="1" as="geometry" />
        </mxCell>
        <mxCell id="OG5c_tO3-TUJXD1SEKAm-11" value="80-20" style="text;html=1;align=center;verticalAlign=middle;whiteSpace=wrap;rounded=0;" parent="1" vertex="1">
          <mxGeometry x="1258.75" y="392.5" width="60" height="30" as="geometry" />
        </mxCell>
        <mxCell id="OG5c_tO3-TUJXD1SEKAm-12" value="" style="rounded=0;whiteSpace=wrap;html=1;" parent="1" vertex="1">
          <mxGeometry x="1192.5" y="322.5" width="490" height="40" as="geometry" />
        </mxCell>
        <mxCell id="OG5c_tO3-TUJXD1SEKAm-13" value="Random Forest - Testare model" style="text;html=1;align=center;verticalAlign=middle;whiteSpace=wrap;rounded=0;" parent="1" vertex="1">
          <mxGeometry x="1327.5" y="327.5" width="300" height="30" as="geometry" />
        </mxCell>
        <mxCell id="OG5c_tO3-TUJXD1SEKAm-14" value="Acuratete&amp;nbsp;" style="text;html=1;align=center;verticalAlign=middle;whiteSpace=wrap;rounded=0;" parent="1" vertex="1">
          <mxGeometry x="1327.5" y="362.5" width="150" height="30" as="geometry" />
        </mxCell>
        <mxCell id="OG5c_tO3-TUJXD1SEKAm-15" value="Pierdere" style="text;html=1;align=center;verticalAlign=middle;whiteSpace=wrap;rounded=0;" parent="1" vertex="1">
          <mxGeometry x="1522.5" y="362.5" width="150" height="30" as="geometry" />
        </mxCell>
        <mxCell id="OG5c_tO3-TUJXD1SEKAm-16" value="" style="endArrow=none;html=1;rounded=0;entryX=0.588;entryY=0.012;entryDx=0;entryDy=0;entryPerimeter=0;exitX=0.591;exitY=0.997;exitDx=0;exitDy=0;exitPerimeter=0;" parent="1" source="OG5c_tO3-TUJXD1SEKAm-1" target="OG5c_tO3-TUJXD1SEKAm-1" edge="1">
          <mxGeometry width="50" height="50" relative="1" as="geometry">
            <mxPoint x="1482.5" y="502.5" as="sourcePoint" />
            <mxPoint x="1532.5" y="452.5" as="targetPoint" />
          </mxGeometry>
        </mxCell>
        <mxCell id="OG5c_tO3-TUJXD1SEKAm-17" value="2.220446049250313e-16" style="text;html=1;align=center;verticalAlign=middle;whiteSpace=wrap;rounded=0;" parent="1" vertex="1">
          <mxGeometry x="1497.5" y="392.5" width="185" height="30" as="geometry" />
        </mxCell>
        <mxCell id="OG5c_tO3-TUJXD1SEKAm-18" value="&amp;nbsp;1.0" style="text;html=1;align=center;verticalAlign=middle;whiteSpace=wrap;rounded=0;" parent="1" vertex="1">
          <mxGeometry x="1377.5" y="392.5" width="60" height="30" as="geometry" />
        </mxCell>
        <mxCell id="OG5c_tO3-TUJXD1SEKAm-19" value="70-30" style="text;html=1;align=center;verticalAlign=middle;whiteSpace=wrap;rounded=0;" parent="1" vertex="1">
          <mxGeometry x="1258.75" y="425.5" width="60" height="30" as="geometry" />
        </mxCell>
        <mxCell id="OG5c_tO3-TUJXD1SEKAm-20" value="1.0" style="text;html=1;align=center;verticalAlign=middle;whiteSpace=wrap;rounded=0;" parent="1" vertex="1">
          <mxGeometry x="1302.5" y="425.5" width="210" height="30" as="geometry" />
        </mxCell>
        <mxCell id="OG5c_tO3-TUJXD1SEKAm-21" value="&amp;nbsp;2.220446049250313e-16" style="text;html=1;align=center;verticalAlign=middle;whiteSpace=wrap;rounded=0;" parent="1" vertex="1">
          <mxGeometry x="1510" y="422.5" width="160" height="30" as="geometry" />
        </mxCell>
        <mxCell id="OG5c_tO3-TUJXD1SEKAm-22" value="60-40" style="text;html=1;align=center;verticalAlign=middle;whiteSpace=wrap;rounded=0;" parent="1" vertex="1">
          <mxGeometry x="1258.75" y="457.5" width="60" height="30" as="geometry" />
        </mxCell>
        <mxCell id="OG5c_tO3-TUJXD1SEKAm-23" value="&lt;div style=&quot;text-align: center;&quot;&gt;&lt;span style=&quot;text-wrap-mode: nowrap;&quot;&gt;&amp;nbsp;2.220446049250313e-16&lt;/span&gt;&lt;/div&gt;" style="text;whiteSpace=wrap;html=1;" parent="1" vertex="1">
          <mxGeometry x="1522.5" y="455.5" width="160" height="40" as="geometry" />
        </mxCell>
        <mxCell id="OG5c_tO3-TUJXD1SEKAm-24" value="&lt;div style=&quot;text-align: center;&quot;&gt;&lt;span style=&quot;background-color: transparent; color: light-dark(rgb(0, 0, 0), rgb(255, 255, 255));&quot;&gt;1.0&lt;/span&gt;&lt;/div&gt;" style="text;whiteSpace=wrap;html=1;" parent="1" vertex="1">
          <mxGeometry x="1400" y="457.5" width="150" height="40" as="geometry" />
        </mxCell>
        <mxCell id="OG5c_tO3-TUJXD1SEKAm-25" value="50-50" style="text;whiteSpace=wrap;" parent="1" vertex="1">
          <mxGeometry x="1270" y="487.5" width="90" height="40" as="geometry" />
        </mxCell>
        <mxCell id="OG5c_tO3-TUJXD1SEKAm-26" value=" 2.220446049250313e-16" style="text;whiteSpace=wrap;" parent="1" vertex="1">
          <mxGeometry x="1522.5" y="487.5" width="150" height="40" as="geometry" />
        </mxCell>
        <mxCell id="OG5c_tO3-TUJXD1SEKAm-27" value="1.0&#xa;" style="text;whiteSpace=wrap;" parent="1" vertex="1">
          <mxGeometry x="1400" y="487.5" width="150" height="40" as="geometry" />
        </mxCell>
        <mxCell id="OG5c_tO3-TUJXD1SEKAm-37" value="" style="rounded=0;whiteSpace=wrap;html=1;" parent="1" vertex="1">
          <mxGeometry x="1775" y="367.5" width="440" height="150" as="geometry" />
        </mxCell>
        <mxCell id="OG5c_tO3-TUJXD1SEKAm-38" value="" style="endArrow=none;html=1;rounded=0;entryX=1;entryY=0.147;entryDx=0;entryDy=0;entryPerimeter=0;exitX=-0.001;exitY=0.148;exitDx=0;exitDy=0;exitPerimeter=0;" parent="1" source="OG5c_tO3-TUJXD1SEKAm-37" target="OG5c_tO3-TUJXD1SEKAm-37" edge="1">
          <mxGeometry width="50" height="50" relative="1" as="geometry">
            <mxPoint x="1825" y="399.5" as="sourcePoint" />
            <mxPoint x="1855" y="427.5" as="targetPoint" />
          </mxGeometry>
        </mxCell>
        <mxCell id="OG5c_tO3-TUJXD1SEKAm-39" value="" style="endArrow=none;html=1;rounded=0;exitX=0.204;exitY=0.993;exitDx=0;exitDy=0;exitPerimeter=0;entryX=0.205;entryY=0.01;entryDx=0;entryDy=0;entryPerimeter=0;" parent="1" source="OG5c_tO3-TUJXD1SEKAm-37" target="OG5c_tO3-TUJXD1SEKAm-37" edge="1">
          <mxGeometry width="50" height="50" relative="1" as="geometry">
            <mxPoint x="1835" y="585.85" as="sourcePoint" />
            <mxPoint x="1865" y="369.5" as="targetPoint" />
            <Array as="points">
              <mxPoint x="1865" y="477.5" />
            </Array>
          </mxGeometry>
        </mxCell>
        <mxCell id="OG5c_tO3-TUJXD1SEKAm-40" value="" style="endArrow=none;html=1;rounded=0;entryX=1;entryY=0.147;entryDx=0;entryDy=0;entryPerimeter=0;exitX=-0.001;exitY=0.148;exitDx=0;exitDy=0;exitPerimeter=0;" parent="1" edge="1">
          <mxGeometry width="50" height="50" relative="1" as="geometry">
            <mxPoint x="1775" y="428.5" as="sourcePoint" />
            <mxPoint x="2215" y="427.5" as="targetPoint" />
          </mxGeometry>
        </mxCell>
        <mxCell id="OG5c_tO3-TUJXD1SEKAm-41" value="" style="endArrow=none;html=1;rounded=0;entryX=1;entryY=0.147;entryDx=0;entryDy=0;entryPerimeter=0;exitX=-0.001;exitY=0.148;exitDx=0;exitDy=0;exitPerimeter=0;" parent="1" edge="1">
          <mxGeometry width="50" height="50" relative="1" as="geometry">
            <mxPoint x="1775" y="458.5" as="sourcePoint" />
            <mxPoint x="2215" y="457.5" as="targetPoint" />
          </mxGeometry>
        </mxCell>
        <mxCell id="OG5c_tO3-TUJXD1SEKAm-42" value="" style="endArrow=none;html=1;rounded=0;entryX=1;entryY=0.147;entryDx=0;entryDy=0;entryPerimeter=0;exitX=-0.001;exitY=0.148;exitDx=0;exitDy=0;exitPerimeter=0;" parent="1" edge="1">
          <mxGeometry width="50" height="50" relative="1" as="geometry">
            <mxPoint x="1775" y="488.5" as="sourcePoint" />
            <mxPoint x="2215" y="487.5" as="targetPoint" />
          </mxGeometry>
        </mxCell>
        <mxCell id="OG5c_tO3-TUJXD1SEKAm-43" value="" style="endArrow=none;html=1;rounded=0;entryX=1;entryY=0.147;entryDx=0;entryDy=0;entryPerimeter=0;exitX=-0.001;exitY=0.148;exitDx=0;exitDy=0;exitPerimeter=0;" parent="1" edge="1">
          <mxGeometry width="50" height="50" relative="1" as="geometry">
            <mxPoint x="1775" y="518.5" as="sourcePoint" />
            <mxPoint x="2215" y="517.5" as="targetPoint" />
          </mxGeometry>
        </mxCell>
        <mxCell id="OG5c_tO3-TUJXD1SEKAm-44" value="Procent date" style="text;html=1;align=center;verticalAlign=middle;whiteSpace=wrap;rounded=0;" parent="1" vertex="1">
          <mxGeometry x="1767.5" y="367.5" width="107.5" height="30" as="geometry" />
        </mxCell>
        <mxCell id="OG5c_tO3-TUJXD1SEKAm-45" value="" style="rounded=0;whiteSpace=wrap;html=1;" parent="1" vertex="1">
          <mxGeometry x="1725" y="367.5" width="50" height="150" as="geometry" />
        </mxCell>
        <mxCell id="OG5c_tO3-TUJXD1SEKAm-46" value="Train-Test Data" style="text;html=1;align=center;verticalAlign=middle;whiteSpace=wrap;rounded=0;rotation=-90;" parent="1" vertex="1">
          <mxGeometry x="1682.5" y="427.5" width="135" height="30" as="geometry" />
        </mxCell>
        <mxCell id="OG5c_tO3-TUJXD1SEKAm-47" value="80-20" style="text;html=1;align=center;verticalAlign=middle;whiteSpace=wrap;rounded=0;" parent="1" vertex="1">
          <mxGeometry x="1791.25" y="397.5" width="60" height="30" as="geometry" />
        </mxCell>
        <mxCell id="OG5c_tO3-TUJXD1SEKAm-48" value="" style="rounded=0;whiteSpace=wrap;html=1;" parent="1" vertex="1">
          <mxGeometry x="1725" y="327.5" width="305" height="40" as="geometry" />
        </mxCell>
        <mxCell id="OG5c_tO3-TUJXD1SEKAm-49" value="KNN - Testare model" style="text;html=1;align=center;verticalAlign=middle;whiteSpace=wrap;rounded=0;" parent="1" vertex="1">
          <mxGeometry x="1725" y="335" width="300" height="30" as="geometry" />
        </mxCell>
        <mxCell id="OG5c_tO3-TUJXD1SEKAm-50" value="Accuracy" style="text;html=1;align=center;verticalAlign=middle;whiteSpace=wrap;rounded=0;" parent="1" vertex="1">
          <mxGeometry x="1860" y="367.5" width="150" height="30" as="geometry" />
        </mxCell>
        <mxCell id="OG5c_tO3-TUJXD1SEKAm-52" value="" style="endArrow=none;html=1;rounded=0;entryX=0.588;entryY=0.012;entryDx=0;entryDy=0;entryPerimeter=0;exitX=0.591;exitY=0.997;exitDx=0;exitDy=0;exitPerimeter=0;" parent="1" source="OG5c_tO3-TUJXD1SEKAm-37" target="OG5c_tO3-TUJXD1SEKAm-37" edge="1">
          <mxGeometry width="50" height="50" relative="1" as="geometry">
            <mxPoint x="2015" y="507.5" as="sourcePoint" />
            <mxPoint x="2065" y="457.5" as="targetPoint" />
          </mxGeometry>
        </mxCell>
        <mxCell id="OG5c_tO3-TUJXD1SEKAm-54" value="&amp;nbsp;1.0" style="text;html=1;align=center;verticalAlign=middle;whiteSpace=wrap;rounded=0;" parent="1" vertex="1">
          <mxGeometry x="1910" y="397.5" width="60" height="30" as="geometry" />
        </mxCell>
        <mxCell id="OG5c_tO3-TUJXD1SEKAm-55" value="70-30" style="text;html=1;align=center;verticalAlign=middle;whiteSpace=wrap;rounded=0;" parent="1" vertex="1">
          <mxGeometry x="1791.25" y="430.5" width="60" height="30" as="geometry" />
        </mxCell>
        <mxCell id="OG5c_tO3-TUJXD1SEKAm-56" value="99.93%" style="text;html=1;align=center;verticalAlign=middle;whiteSpace=wrap;rounded=0;" parent="1" vertex="1">
          <mxGeometry x="1835" y="430.5" width="210" height="30" as="geometry" />
        </mxCell>
        <mxCell id="OG5c_tO3-TUJXD1SEKAm-58" value="60-40" style="text;html=1;align=center;verticalAlign=middle;whiteSpace=wrap;rounded=0;" parent="1" vertex="1">
          <mxGeometry x="1791.25" y="462.5" width="60" height="30" as="geometry" />
        </mxCell>
        <mxCell id="OG5c_tO3-TUJXD1SEKAm-60" value="&lt;div style=&quot;text-align: center;&quot;&gt;99.88%&lt;/div&gt;" style="text;whiteSpace=wrap;html=1;" parent="1" vertex="1">
          <mxGeometry x="1920" y="462.5" width="150" height="40" as="geometry" />
        </mxCell>
        <mxCell id="OG5c_tO3-TUJXD1SEKAm-61" value="50-50" style="text;html=1;align=center;verticalAlign=middle;resizable=0;points=[];autosize=1;strokeColor=none;fillColor=none;" parent="1" vertex="1">
          <mxGeometry x="1796.25" y="487.5" width="50" height="30" as="geometry" />
        </mxCell>
        <mxCell id="OG5c_tO3-TUJXD1SEKAm-62" value="99.82%" style="text;whiteSpace=wrap;" parent="1" vertex="1">
          <mxGeometry x="1920" y="487.5" width="60" height="40" as="geometry" />
        </mxCell>
        <mxCell id="OG5c_tO3-TUJXD1SEKAm-127" value="Random Forest - Test" style="shape=table;childLayout=tableLayout;startSize=40;collapsible=0;recursiveResize=0;expand=0;fontSize=16;" parent="1" vertex="1">
          <mxGeometry x="2530" y="610" width="300" height="540" as="geometry" />
        </mxCell>
        <mxCell id="OG5c_tO3-TUJXD1SEKAm-128" value="" style="shape=tableRow;horizontal=0;swimlaneHead=0;swimlaneBody=0;top=0;left=0;strokeColor=inherit;bottom=0;right=0;dropTarget=0;fontStyle=0;fillColor=none;points=[[0,0.5],[1,0.5]];portConstraint=eastwest;startSize=40;collapsible=0;recursiveResize=0;expand=0;fontSize=16;" parent="OG5c_tO3-TUJXD1SEKAm-127" vertex="1">
          <mxGeometry y="40" width="300" height="46" as="geometry" />
        </mxCell>
        <mxCell id="OG5c_tO3-TUJXD1SEKAm-129" value="Data percentage" style="swimlane;swimlaneHead=0;swimlaneBody=0;fontStyle=0;strokeColor=inherit;connectable=0;fillColor=none;startSize=120;collapsible=0;recursiveResize=0;expand=0;fontSize=16;" parent="OG5c_tO3-TUJXD1SEKAm-128" vertex="1">
          <mxGeometry x="40" width="120" height="46" as="geometry">
            <mxRectangle width="120" height="46" as="alternateBounds" />
          </mxGeometry>
        </mxCell>
        <mxCell id="OG5c_tO3-TUJXD1SEKAm-130" value="Accuracy" style="swimlane;swimlaneHead=0;swimlaneBody=0;fontStyle=0;strokeColor=inherit;connectable=0;fillColor=none;startSize=120;collapsible=0;recursiveResize=0;expand=0;fontSize=16;" parent="OG5c_tO3-TUJXD1SEKAm-128" vertex="1">
          <mxGeometry x="160" width="120" height="46" as="geometry">
            <mxRectangle width="120" height="46" as="alternateBounds" />
          </mxGeometry>
        </mxCell>
        <mxCell id="OG5c_tO3-TUJXD1SEKAm-131" value="" style="swimlane;swimlaneHead=0;swimlaneBody=0;fontStyle=0;strokeColor=inherit;connectable=0;fillColor=none;startSize=120;collapsible=0;recursiveResize=0;expand=0;fontSize=16;" parent="OG5c_tO3-TUJXD1SEKAm-128" vertex="1">
          <mxGeometry x="280" width="20" height="46" as="geometry">
            <mxRectangle width="20" height="46" as="alternateBounds" />
          </mxGeometry>
        </mxCell>
        <mxCell id="OG5c_tO3-TUJXD1SEKAm-150" value="" style="shape=tableRow;horizontal=0;startSize=40;swimlaneHead=0;swimlaneBody=0;top=0;left=0;bottom=0;right=0;dropTarget=0;collapsible=0;recursiveResize=0;expand=0;fontStyle=0;fillColor=none;strokeColor=inherit;" parent="OG5c_tO3-TUJXD1SEKAm-127" vertex="1">
          <mxGeometry y="86" width="300" height="47" as="geometry" />
        </mxCell>
        <mxCell id="OG5c_tO3-TUJXD1SEKAm-151" value="90-10" style="connectable=0;recursiveResize=0;strokeColor=inherit;fillColor=none;align=center;whiteSpace=wrap;html=1;" parent="OG5c_tO3-TUJXD1SEKAm-150" vertex="1">
          <mxGeometry x="40" width="120" height="47" as="geometry">
            <mxRectangle width="120" height="47" as="alternateBounds" />
          </mxGeometry>
        </mxCell>
        <mxCell id="OG5c_tO3-TUJXD1SEKAm-152" value="Value 2" style="connectable=0;recursiveResize=0;strokeColor=inherit;fillColor=none;align=center;whiteSpace=wrap;html=1;" parent="OG5c_tO3-TUJXD1SEKAm-150" vertex="1">
          <mxGeometry x="160" width="120" height="47" as="geometry">
            <mxRectangle width="120" height="47" as="alternateBounds" />
          </mxGeometry>
        </mxCell>
        <mxCell id="OG5c_tO3-TUJXD1SEKAm-153" value="" style="connectable=0;recursiveResize=0;strokeColor=inherit;fillColor=none;align=center;whiteSpace=wrap;html=1;" parent="OG5c_tO3-TUJXD1SEKAm-150" vertex="1">
          <mxGeometry x="280" width="20" height="47" as="geometry">
            <mxRectangle width="20" height="47" as="alternateBounds" />
          </mxGeometry>
        </mxCell>
        <mxCell id="OG5c_tO3-TUJXD1SEKAm-146" style="shape=tableRow;horizontal=0;startSize=40;swimlaneHead=0;swimlaneBody=0;top=0;left=0;bottom=0;right=0;dropTarget=0;collapsible=0;recursiveResize=0;expand=0;fontStyle=0;fillColor=none;strokeColor=inherit;" parent="OG5c_tO3-TUJXD1SEKAm-127" vertex="1">
          <mxGeometry y="133" width="300" height="46" as="geometry" />
        </mxCell>
        <mxCell id="OG5c_tO3-TUJXD1SEKAm-147" value="80-20" style="connectable=0;recursiveResize=0;strokeColor=inherit;fillColor=none;align=center;whiteSpace=wrap;html=1;" parent="OG5c_tO3-TUJXD1SEKAm-146" vertex="1">
          <mxGeometry x="40" width="120" height="46" as="geometry">
            <mxRectangle width="120" height="46" as="alternateBounds" />
          </mxGeometry>
        </mxCell>
        <mxCell id="OG5c_tO3-TUJXD1SEKAm-148" value="Value 5" style="connectable=0;recursiveResize=0;strokeColor=inherit;fillColor=none;align=center;whiteSpace=wrap;html=1;" parent="OG5c_tO3-TUJXD1SEKAm-146" vertex="1">
          <mxGeometry x="160" width="120" height="46" as="geometry">
            <mxRectangle width="120" height="46" as="alternateBounds" />
          </mxGeometry>
        </mxCell>
        <mxCell id="OG5c_tO3-TUJXD1SEKAm-149" value="" style="connectable=0;recursiveResize=0;strokeColor=inherit;fillColor=none;align=center;whiteSpace=wrap;html=1;" parent="OG5c_tO3-TUJXD1SEKAm-146" vertex="1">
          <mxGeometry x="280" width="20" height="46" as="geometry">
            <mxRectangle width="20" height="46" as="alternateBounds" />
          </mxGeometry>
        </mxCell>
        <mxCell id="OG5c_tO3-TUJXD1SEKAm-142" style="shape=tableRow;horizontal=0;startSize=40;swimlaneHead=0;swimlaneBody=0;top=0;left=0;bottom=0;right=0;dropTarget=0;collapsible=0;recursiveResize=0;expand=0;fontStyle=0;fillColor=none;strokeColor=inherit;" parent="OG5c_tO3-TUJXD1SEKAm-127" vertex="1">
          <mxGeometry y="179" width="300" height="47" as="geometry" />
        </mxCell>
        <mxCell id="OG5c_tO3-TUJXD1SEKAm-143" value="70-30" style="connectable=0;recursiveResize=0;strokeColor=inherit;fillColor=none;align=center;whiteSpace=wrap;html=1;" parent="OG5c_tO3-TUJXD1SEKAm-142" vertex="1">
          <mxGeometry x="40" width="120" height="47" as="geometry">
            <mxRectangle width="120" height="47" as="alternateBounds" />
          </mxGeometry>
        </mxCell>
        <mxCell id="OG5c_tO3-TUJXD1SEKAm-144" value="Value 8" style="connectable=0;recursiveResize=0;strokeColor=inherit;fillColor=none;align=center;whiteSpace=wrap;html=1;" parent="OG5c_tO3-TUJXD1SEKAm-142" vertex="1">
          <mxGeometry x="160" width="120" height="47" as="geometry">
            <mxRectangle width="120" height="47" as="alternateBounds" />
          </mxGeometry>
        </mxCell>
        <mxCell id="OG5c_tO3-TUJXD1SEKAm-145" value="" style="connectable=0;recursiveResize=0;strokeColor=inherit;fillColor=none;align=center;whiteSpace=wrap;html=1;" parent="OG5c_tO3-TUJXD1SEKAm-142" vertex="1">
          <mxGeometry x="280" width="20" height="47" as="geometry">
            <mxRectangle width="20" height="47" as="alternateBounds" />
          </mxGeometry>
        </mxCell>
        <mxCell id="OG5c_tO3-TUJXD1SEKAm-132" value="" style="shape=tableRow;horizontal=0;swimlaneHead=0;swimlaneBody=0;top=0;left=0;strokeColor=inherit;bottom=0;right=0;dropTarget=0;fontStyle=0;fillColor=none;points=[[0,0.5],[1,0.5]];portConstraint=eastwest;startSize=40;collapsible=0;recursiveResize=0;expand=0;fontSize=16;" parent="OG5c_tO3-TUJXD1SEKAm-127" vertex="1">
          <mxGeometry y="226" width="300" height="291" as="geometry" />
        </mxCell>
        <mxCell id="OG5c_tO3-TUJXD1SEKAm-133" value="" style="swimlane;swimlaneHead=0;swimlaneBody=0;fontStyle=0;connectable=0;strokeColor=inherit;fillColor=none;startSize=0;collapsible=0;recursiveResize=0;expand=0;fontSize=16;" parent="OG5c_tO3-TUJXD1SEKAm-132" vertex="1">
          <mxGeometry x="40" width="120" height="291" as="geometry">
            <mxRectangle width="120" height="291" as="alternateBounds" />
          </mxGeometry>
        </mxCell>
        <mxCell id="OG5c_tO3-TUJXD1SEKAm-134" value="" style="swimlane;swimlaneHead=0;swimlaneBody=0;fontStyle=0;connectable=0;strokeColor=inherit;fillColor=none;startSize=0;collapsible=0;recursiveResize=0;expand=0;fontSize=16;" parent="OG5c_tO3-TUJXD1SEKAm-132" vertex="1">
          <mxGeometry x="160" width="120" height="291" as="geometry">
            <mxRectangle width="120" height="291" as="alternateBounds" />
          </mxGeometry>
        </mxCell>
        <mxCell id="OG5c_tO3-TUJXD1SEKAm-135" value="" style="swimlane;swimlaneHead=0;swimlaneBody=0;fontStyle=0;connectable=0;strokeColor=inherit;fillColor=none;startSize=0;collapsible=0;recursiveResize=0;expand=0;fontSize=16;" parent="OG5c_tO3-TUJXD1SEKAm-132" vertex="1">
          <mxGeometry x="280" width="20" height="291" as="geometry">
            <mxRectangle width="20" height="291" as="alternateBounds" />
          </mxGeometry>
        </mxCell>
        <mxCell id="OG5c_tO3-TUJXD1SEKAm-136" value="" style="shape=tableRow;horizontal=0;swimlaneHead=0;swimlaneBody=0;top=0;left=0;strokeColor=inherit;bottom=0;right=0;dropTarget=0;fontStyle=0;fillColor=none;points=[[0,0.5],[1,0.5]];portConstraint=eastwest;startSize=40;collapsible=0;recursiveResize=0;expand=0;fontSize=16;" parent="OG5c_tO3-TUJXD1SEKAm-127" vertex="1">
          <mxGeometry y="517" width="300" height="23" as="geometry" />
        </mxCell>
        <mxCell id="OG5c_tO3-TUJXD1SEKAm-137" value="" style="swimlane;swimlaneHead=0;swimlaneBody=0;fontStyle=0;connectable=0;strokeColor=inherit;fillColor=none;startSize=0;collapsible=0;recursiveResize=0;expand=0;fontSize=16;" parent="OG5c_tO3-TUJXD1SEKAm-136" vertex="1">
          <mxGeometry x="40" width="120" height="23" as="geometry">
            <mxRectangle width="120" height="23" as="alternateBounds" />
          </mxGeometry>
        </mxCell>
        <mxCell id="OG5c_tO3-TUJXD1SEKAm-138" value="" style="swimlane;swimlaneHead=0;swimlaneBody=0;fontStyle=0;connectable=0;strokeColor=inherit;fillColor=none;startSize=0;collapsible=0;recursiveResize=0;expand=0;fontSize=16;" parent="OG5c_tO3-TUJXD1SEKAm-136" vertex="1">
          <mxGeometry x="160" width="120" height="23" as="geometry">
            <mxRectangle width="120" height="23" as="alternateBounds" />
          </mxGeometry>
        </mxCell>
        <mxCell id="OG5c_tO3-TUJXD1SEKAm-139" value="" style="swimlane;swimlaneHead=0;swimlaneBody=0;fontStyle=0;connectable=0;strokeColor=inherit;fillColor=none;startSize=0;collapsible=0;recursiveResize=0;expand=0;fontSize=16;" parent="OG5c_tO3-TUJXD1SEKAm-136" vertex="1">
          <mxGeometry x="280" width="20" height="23" as="geometry">
            <mxRectangle width="20" height="23" as="alternateBounds" />
          </mxGeometry>
        </mxCell>
        <mxCell id="OG5c_tO3-TUJXD1SEKAm-154" value="Training-Testing data" style="text;html=1;align=center;verticalAlign=middle;resizable=0;points=[];autosize=1;strokeColor=none;fillColor=none;rotation=-90;" parent="1" vertex="1">
          <mxGeometry x="2370" y="760" width="140" height="30" as="geometry" />
        </mxCell>
      </root>
    </mxGraphModel>
  </diagram>
</mxfile>
